# xmcd
#
# Track frame offsets:
#	150
#	14133
#	26942
#	36174
#	45999
#	57131
#	66389
#	78839
#	92307
#	105030
#	119723
#
# Disc length: 1764 seconds
#
# Revision: 1
# Processed by: cddbd v1.5.1PL0 Copyright (c) Steve Scherf et al.
# Submitted via: EasyCDDAExtractor 7.0.5.4
#
DISCID=8606e20b
DTITLE=Various Artist - Country Hits For Lovers
DYEAR=1980
DGENRE=Country
TTITLE0=Love sick blues
TTITLE1=Jealous heart
TTITLE2=Laura Lee
TTITLE3=What's he doing in my world
TTITLE4=Footrprint in the snow
TTITLE5=Secret Love
TTITLE6=Gentle on my mind
TTITLE7=four walls
TTITLE8=Release me
TTITLE9=Birmingham jail
TTITLE10=I really don't want to know
EXTD=
EXTT0=
EXTT1=
EXTT2=
EXTT3=
EXTT4=
EXTT5=
EXTT6=
EXTT7=
EXTT8=
EXTT9=
EXTT10=
PLAYORDER=
